<svg id="Layer_1" data-name="Layer 1" xmlns="http://www.w3.org/2000/svg" viewBox="0 0 648 648"><defs><style>.cls-1{fill:#2d3a96;}.cls-2{fill:#aaa8d3;}.cls-3{fill:#fff;}</style></defs><title>Artboard 1</title><circle class="cls-1" cx="324" cy="324" r="228.65"/><circle class="cls-2" cx="335.58" cy="227.66" r="50.88"/><path class="cls-2" d="M277.76,279.39l49.76-19.79a24.44,24.44,0,0,1,18.32.09l47.79,19.6a24.46,24.46,0,0,1,15.18,22.64v83.41a24.46,24.46,0,0,1-24.46,24.46H286.8a24.46,24.46,0,0,1-24.46-24.46V302.12A24.46,24.46,0,0,1,277.76,279.39Z"/><circle class="cls-3" cx="297.96" cy="258.37" r="50.88"/><path class="cls-3" d="M240.14,310.09,289.9,290.3a24.49,24.49,0,0,1,18.32.1L356,310a24.48,24.48,0,0,1,15.18,22.64v83.41a24.47,24.47,0,0,1-24.47,24.46H249.18a24.46,24.46,0,0,1-24.46-24.46V332.83A24.47,24.47,0,0,1,240.14,310.09Z"/></svg>