<svg id="Layer_1" data-name="Layer 1" xmlns="http://www.w3.org/2000/svg" viewBox="0 0 288 288"><defs><style>.cls-1{fill:#2d3a96;}.cls-2{fill:#aaa8d3;}.cls-3{fill:#fff;}</style></defs><title>Artboard 1</title><circle class="cls-1" cx="144" cy="139.31" r="126.68"/><circle class="cls-2" cx="150.41" cy="85.94" r="28.19"/><path class="cls-2" d="M118.38,114.6l27.57-11a13.5,13.5,0,0,1,10.15.06l26.48,10.86A13.54,13.54,0,0,1,191,127.08V173.3a13.55,13.55,0,0,1-13.55,13.55h-54a13.55,13.55,0,0,1-13.55-13.55V127.19A13.54,13.54,0,0,1,118.38,114.6Z"/><circle class="cls-3" cx="129.57" cy="102.95" r="28.19"/><path class="cls-3" d="M97.54,131.61l27.57-11a13.55,13.55,0,0,1,10.15,0l26.48,10.86a13.55,13.55,0,0,1,8.41,12.54v46.21a13.55,13.55,0,0,1-13.55,13.55h-54A13.54,13.54,0,0,1,89,190.31V144.2A13.54,13.54,0,0,1,97.54,131.61Z"/></svg>