<svg id="Layer_1" data-name="Layer 1" xmlns="http://www.w3.org/2000/svg" viewBox="0 0 288 288"><defs><style>.cls-1{fill:#fff;}</style></defs><title>Facebook</title><circle id="Ellipse_2" data-name="Ellipse 2" class="cls-1" cx="15.79" cy="124.45" r="1.45"/><path class="cls-1" d="M270.6,34.14v228c-3.12,8.46-9.46,10.47-18,10.25-18.42-.47-36.87-.24-55.3-.06-3.91,0-5.33-.84-5.31-5.08.18-30.53.1-61.07.11-91.6,0-1.36.17-2.71.28-4.44,9.72,0,19.12-.11,28.51.06,3.09.05,4.25-.83,4.17-4-.18-7.74-.24-15.48,0-23.21.13-3.75-1.06-5-4.78-4.72s-7.59.06-11.39.06H192.13c0-9.76.09-19,0-28.26a13.52,13.52,0,0,1,4.55-10.48,22.58,22.58,0,0,1,15.56-6.56c4.08,0,8.17-.14,12.24,0,2.93.12,4-1,3.93-3.92-.15-7-.18-14.07,0-21.1.09-3.25-1.18-4-4.22-4-9.85.15-19.7,0-29.55.06a36.9,36.9,0,0,0-37,37c-.07,10.7,0,21.39,0,32.08,0,1.62-.23,3.23-.39,5.36H125.06v22.05c0,9.58,0,9.58,9.41,9.58h22.68a25.89,25.89,0,0,1,.42,3q0,47.07.06,94.14c0,2.95-1.07,3.93-4,3.89-8.86-.11-17.73,0-26.59,0q-47.91,0-95.83,0c-8.67,0-13.51-4.88-13.73-13.53,0-1.27,0-2.53,0-3.8,0-71.06.09-142.12-.11-213.18,0-8.74,2-15.42,10.82-18.58h231.4A17.52,17.52,0,0,1,270.6,34.14Z"/></svg>