<svg id="Layer_1" data-name="Layer 1" xmlns="http://www.w3.org/2000/svg" viewBox="0 0 288 288"><defs><style>.cls-1{fill:#fff;}</style></defs><title>insta</title><path class="cls-1" d="M223.12,279H55.92a9.92,9.92,0,0,0-1.43-.34A54.91,54.91,0,0,1,5.2,223.91q0-79.29,0-158.58a53.16,53.16,0,0,1,.92-10c5.14-26.7,27.44-45,54.66-45q78.73,0,157.46,0c2,0,4,.1,5.95.29a54.71,54.71,0,0,1,48,41.31c.75,3,1.14,6.08,1.7,9.12V228.22a15.44,15.44,0,0,0-.35,1.61,54.84,54.84,0,0,1-42.92,47.83C228.13,278.21,225.61,278.54,223.12,279ZM26,144.64q0,39.45,0,78.91c0,19.53,15,34.54,34.52,34.55h158A34,34,0,0,0,253,223.81q.06-79.2,0-158.4a33.89,33.89,0,0,0-34.23-34.25q-79.2-.07-158.4,0a33.23,33.23,0,0,0-6.3.54,33.93,33.93,0,0,0-28,33.82Q26,105.09,26,144.64Z"/><path class="cls-1" d="M62,144.54a77.53,77.53,0,1,1,77.44,77.61A77.62,77.62,0,0,1,62,144.54Zm20.83.12a56.7,56.7,0,1,0,56.75-56.72A56.79,56.79,0,0,0,82.82,144.66Z"/><path class="cls-1" d="M231,68.73a15.16,15.16,0,1,1-15-15.28A15.12,15.12,0,0,1,231,68.73Z"/></svg>