<svg id="Layer_1" data-name="Layer 1" xmlns="http://www.w3.org/2000/svg" viewBox="0 0 288 288"><defs><style>.cls-1{fill:none;stroke:#fff;stroke-miterlimit:10;stroke-width:1.63px;}.cls-2,.cls-4{fill:#fff;}.cls-3,.cls-4{isolation:isolate;}.cls-4{font-size:69.82px;font-family:SFCompactDisplay-Medium, SF Compact Display;font-weight:500;}.cls-5{letter-spacing:0em;}.cls-6{letter-spacing:0em;}</style></defs><title>Artboard 3 copy</title><path id="Path_1" data-name="Path 1" class="cls-1" d="M61.66,114.67l-56.74-.43L4.47,172.9l56.75.43"/><circle id="Ellipse_1" data-name="Ellipse 1" class="cls-2" cx="62.8" cy="114.67" r="2.7"/><circle id="Ellipse_2" data-name="Ellipse 2" class="cls-2" cx="15.79" cy="124.45" r="1.45"/><circle id="Ellipse_3" data-name="Ellipse 3" class="cls-2" cx="46.41" cy="124.68" r="1.45"/><circle id="Ellipse_4" data-name="Ellipse 4" class="cls-2" cx="51.56" cy="168.33" r="2.07"/><circle id="Ellipse_5" data-name="Ellipse 5" class="cls-2" cx="51.92" cy="119.87" r="2.07"/><circle id="Ellipse_6" data-name="Ellipse 6" class="cls-2" cx="61.22" cy="173.33" r="2.7"/><path id="Path_2" data-name="Path 2" class="cls-1" d="M51.56,168.32,10,168l.36-48.45,41.57.31"/><path id="Path_3" data-name="Path 3" class="cls-1" d="M15.79,125.07,15.5,163l30.62.23.29-37.93"/><g id="Circuit" class="cls-3"><text class="cls-4" transform="matrix(1, 0.01, -0.01, 1, 72.94, 169.54)">Ci<tspan class="cls-5" x="60.99" y="0">r</tspan><tspan x="85.92" y="0">cu</tspan><tspan class="cls-6" x="161.84" y="0">i</tspan><tspan x="179.54" y="0">t</tspan></text></g><line class="cls-1" x1="31.14" y1="119.71" x2="30.91" y2="149.39"/><circle class="cls-2" cx="30.91" cy="149.39" r="1.6"/></svg>