<svg id="Layer_1" data-name="Layer 1" xmlns="http://www.w3.org/2000/svg" viewBox="0 0 288 288"><defs><style>.cls-1{fill:#fff;}</style></defs><title>twitter</title><path class="cls-1" d="M277.34,68a63.65,63.65,0,0,1-30,8c20-14,22-29.43,22-29.43-17.71,12.57-34.57,12.29-34.57,12.29-12-14-41.14-24.57-70.56-6.9s-22.85,58.2-22.85,58.2c-85.67-7.92-112.62-58.2-112.62-58.2S5,93,44.58,125.74c0,0-12.74.65-22.9-8.23,0,0-3.2,43.46,43.27,54.94,0,0-5.18,4.49-24.57,1.34,0,0,7.75,33.65,50.48,38.19,0,0-28.52,28.84-80.2,22.38,0,0,86.56,63.31,185.18-11.62,0,0,56.41-43.07,54.69-127.9C259.66,89.39,277.34,68,277.34,68Z"/></svg>